<svg xmlns="http://www.w3.org/2000/svg" viewBox="0 0 200 200" width="200" height="200">
  <!-- Green background circle -->
  <circle cx="100" cy="100" r="95" fill="#2d5016" stroke="#1a3d0a" stroke-width="2"/>
  
  <!-- Bicycle frame - green -->
  <g stroke="#ffffff" stroke-width="8" fill="none" stroke-linecap="round" stroke-linejoin="round">
    <!-- Frame triangle -->
    <line x1="100" y1="60" x2="70" y2="130"/>
    <line x1="100" y1="60" x2="130" y2="130"/>
    <line x1="70" y1="130" x2="130" y2="130"/>
    <!-- Seat tube -->
    <line x1="100" y1="60" x2="100" y2="130"/>
  </g>
  
  <!-- Left wheel -->
  <circle cx="70" cy="130" r="28" fill="none" stroke="#ffffff" stroke-width="3"/>
  <circle cx="70" cy="130" r="3" fill="#ffffff"/>
  <!-- Spokes left wheel -->
  <line x1="70" y1="102" x2="70" y2="158" stroke="#ffffff" stroke-width="1.5" opacity="0.7"/>
  <line x1="42" y1="130" x2="98" y2="130" stroke="#ffffff" stroke-width="1.5" opacity="0.7"/>
  <line x1="48" y1="109" x2="92" y2="151" stroke="#ffffff" stroke-width="1.5" opacity="0.7"/>
  <line x1="48" y1="151" x2="92" y2="109" stroke="#ffffff" stroke-width="1.5" opacity="0.7"/>
  
  <!-- Right wheel -->
  <circle cx="130" cy="130" r="28" fill="none" stroke="#ffffff" stroke-width="3"/>
  <circle cx="130" cy="130" r="3" fill="#ffffff"/>
  <!-- Spokes right wheel -->
  <line x1="130" y1="102" x2="130" y2="158" stroke="#ffffff" stroke-width="1.5" opacity="0.7"/>
  <line x1="102" y1="130" x2="158" y2="130" stroke="#ffffff" stroke-width="1.5" opacity="0.7"/>
  <line x1="108" y1="109" x2="152" y2="151" stroke="#ffffff" stroke-width="1.5" opacity="0.7"/>
  <line x1="108" y1="151" x2="152" y2="109" stroke="#ffffff" stroke-width="1.5" opacity="0.7"/>
  
  <!-- Handlebars -->
  <path d="M 100 60 Q 85 40 70 45" stroke="#ffffff" stroke-width="6" fill="none" stroke-linecap="round"/>
  
  <!-- Seat -->
  <ellipse cx="100" cy="58" rx="12" ry="5" fill="#ffffff" opacity="0.9"/>
  
  <!-- Pedals -->
  <circle cx="100" cy="110" r="5" fill="#ffffff"/>
</svg>